<?xml version="1.0" encoding="UTF-8"?>
<svg id="Layer_2" data-name="Layer 2" xmlns="http://www.w3.org/2000/svg" viewBox="0 0 492 447.66">
  <defs>
    <style>
      .cls-1 {
        fill-rule: evenodd;
      }
    </style>
  </defs>
  <g id="Layer_1-2" data-name="Layer 1">
    <path class="cls-1" d="M168.7,349.17l47.55,61.8c4.32,5.61,3.56,13.55-1.68,18.31l-16.35,14.84c-2.92,2.65-6.44,3.83-10.36,3.47-3.93-.36-7.16-2.15-9.57-5.27l-52.72-68.25,43.14-24.91ZM429.57,190.55h48.43c7.75,0,14.02-6.33,14-14.06-.02-7.75-6.33-14.01-14.07-14.01h-48.43c-7.75,0-14.02,6.33-14,14.06.02,7.75,6.33,14.01,14.07,14.01h0ZM372.08,63.03l24.22-41.94c3.87-6.7,1.61-15.3-5.1-19.19-6.69-3.88-15.31-1.62-19.18,5.09l-24.22,41.94c-3.87,6.7-1.61,15.3,5.1,19.19,6.69,3.88,15.3,1.62,19.18-5.09ZM428.11,113.27l39.76-22.96c6.75-3.9,9.06-12.53,5.17-19.28-3.9-6.75-12.53-9.06-19.28-5.17l-39.76,22.96c-6.75,3.9-9.06,12.53-5.17,19.28,3.9,6.75,12.53,9.06,19.28,5.16ZM365.58,176.44l46.9,81.23c8.81,15.25,3.53,34.93-11.72,43.74-14.23,8.22-32.32,4.17-41.83-8.8h0c-51.91-7.9-119.54.59-186.78,26.8l-64.65-111.97c56.34-45.08,97.63-99.11,116.75-148.02h0c-6.72-14.79-1.2-32.69,13.14-40.97,15.25-8.81,34.93-3.53,43.74,11.72l46.9,81.23c1.33-1.03,2.75-1.99,4.26-2.85,18.12-10.46,41.3-4.25,51.76,13.87s4.25,41.3-13.87,51.76c-1.5.87-3.04,1.62-4.6,2.26h0ZM155.89,331.26l-67.74-117.33-53.85,31.09c-32.72,18.89-44.04,61.12-25.15,93.84h0c18.89,32.72,61.12,44.04,93.84,25.15l53.85-31.09-.96-1.66Z"/>
  </g>
</svg>