<?xml version="1.0" encoding="UTF-8"?>
<svg id="Layer_2" data-name="Layer 2" xmlns="http://www.w3.org/2000/svg" viewBox="0 0 260.32 278.4">
  <g id="Layer_1-2" data-name="Layer 1">
    <path d="M185.74,110.22c4.73-9.67,12.93-16.95,23.13-20.46,4.27-1.47,8.66-2.04,13.04-2.06V30.26c0-16.68-13.58-30.26-30.26-30.26H30.26C13.58,0,0,13.58,0,30.26v201.74c0,16.68,13.58,30.26,30.26,30.26h100.36l-1.09-3.17c-4.39-12.8-3.53-26.48,2.39-38.57l53.82-110.3ZM40.35,60.52h121.04c5.58,0,10.09,4.52,10.09,10.09s-4.51,10.09-10.09,10.09H40.35c-5.58,0-10.09-4.52-10.09-10.09s4.51-10.09,10.09-10.09ZM40.35,100.87h110.96c5.58,0,10.09,4.52,10.09,10.09s-4.51,10.09-10.09,10.09H40.35c-5.58,0-10.09-4.52-10.09-10.09s4.51-10.09,10.09-10.09ZM110.96,201.74H40.35c-5.58,0-10.09-4.52-10.09-10.09s4.51-10.09,10.09-10.09h70.61c5.58,0,10.09,4.52,10.09,10.09s-4.51,10.09-10.09,10.09ZM40.35,161.39c-5.58,0-10.09-4.52-10.09-10.09s4.51-10.09,10.09-10.09h90.78c5.58,0,10.09,4.52,10.09,10.09s-4.51,10.09-10.09,10.09H40.35ZM258.27,145.61l-53.84,110.34c-3.56,7.27-9.72,12.72-17.36,15.34l-19.07,6.56c-1.08.37-2.2.55-3.28.55-4.19,0-8.1-2.62-9.53-6.81l-6.57-19.07c-2.63-7.67-2.12-15.88,1.43-23.13l53.84-110.32c2.35-4.84,6.47-8.47,11.56-10.23,5.08-1.76,10.56-1.43,15.4.95l18.14,8.85c4.84,2.36,8.47,6.48,10.23,11.57s1.42,10.56-.95,15.4h0Z"/>
  </g>
</svg>