<?xml version="1.0" encoding="UTF-8"?>
<svg id="Layer_2" data-name="Layer 2" xmlns="http://www.w3.org/2000/svg" viewBox="0 0 512 512">
  <g id="Layer_1-2" data-name="Layer 1">
    <path d="M206.08,72.35c-73.74,0-133.73,59.99-133.73,133.73s59.99,133.73,133.73,133.73,133.73-59.99,133.73-133.73-59.99-133.73-133.73-133.73ZM287.59,206.08c0-44.94-36.56-81.5-81.5-81.5v-30.42c61.71,0,111.92,50.21,111.92,111.92h-30.42Z"/>
    <path d="M496.63,422.44l-93.3-93.3-26.34,26.34-14.9-14.9c31.19-36.12,50.07-83.15,50.07-134.5C412.17,92.45,319.72,0,206.08,0S0,92.45,0,206.08s92.45,206.08,206.08,206.08c51.36,0,98.38-18.89,134.5-50.07l14.9,14.9-26.34,26.34,93.3,93.3c9.91,9.91,23.08,15.37,37.1,15.37s27.19-5.46,37.1-15.37c9.91-9.91,15.37-23.08,15.37-37.1s-5.46-27.19-15.37-37.1ZM206.08,370.23c-90.51,0-164.15-73.64-164.15-164.15S115.57,41.93,206.08,41.93s164.15,73.64,164.15,164.15-73.64,164.15-164.15,164.15Z"/>
  </g>
</svg>