<?xml version="1.0" encoding="UTF-8"?>
<svg id="Layer_2" data-name="Layer 2" xmlns="http://www.w3.org/2000/svg" viewBox="0 0 435.66 458.67">
  <defs>
    <style>
      .cls-1 {
        fill-rule: evenodd;
      }
    </style>
  </defs>
  <g id="Layer_1-2" data-name="Layer 1">
    <g id="Icon">
      <path class="cls-1" d="M273.68,13.85l20.31,48.92c10.52,4.82,20.57,10.62,29.99,17.32l52.52-6.85c5.31-.7,10.62,1.3,14.14,5.33,19.52,22.4,34.52,48.36,44.14,76.48,1.75,5.06.83,10.67-2.43,14.91l-32.19,42.05c1.09,11.52,1.09,23.13,0,34.65l32.19,42.05c3.26,4.25,4.18,9.86,2.43,14.91-9.62,28.12-24.62,54.08-44.14,76.48-3.52,4.03-8.83,6.04-14.14,5.33,0,0-52.52-6.85-52.5-6.87-9.43,6.72-19.5,12.52-30.02,17.32l-20.31,48.94c-2.05,4.93-6.44,8.53-11.69,9.56-29.16,5.72-59.16,5.72-88.32,0-5.25-1.02-9.64-4.63-11.69-9.56l-20.31-48.92c-10.52-4.82-20.57-10.62-29.99-17.32l-52.52,6.85c-5.31.7-10.62-1.3-14.14-5.33-19.52-22.4-34.52-48.36-44.14-76.48-1.75-5.06-.83-10.67,2.43-14.91l32.19-42.05c-1.09-11.52-1.09-23.13,0-34.65L3.3,169.96c-3.26-4.25-4.18-9.86-2.43-14.91,9.62-28.12,24.62-54.08,44.14-76.48,3.52-4.03,8.83-6.04,14.14-5.33,0,0,52.52,6.85,52.5,6.87,9.43-6.72,19.5-12.52,30.02-17.32l20.31-48.94c2.05-4.93,6.44-8.53,11.69-9.56,29.16-5.72,59.16-5.72,88.32,0,5.25,1.02,9.64,4.63,11.69,9.56ZM217.83,106.67c-67.71,0-122.67,54.95-122.67,122.67s54.95,122.67,122.67,122.67,122.67-54.95,122.67-122.67-54.95-122.67-122.67-122.67Z"/>
      <path class="cls-1" d="M158.53,240.64c-6.25-6.23-6.25-16.38,0-22.61,6.23-6.25,16.38-6.25,22.61,0l20.69,20.67,52.69-52.67c6.23-6.25,16.38-6.25,22.61,0,6.25,6.23,6.25,16.38,0,22.61l-64,64c-6.25,6.25-16.36,6.25-22.61,0l-32-32Z"/>
    </g>
  </g>
</svg>