<?xml version="1.0" encoding="UTF-8"?>
<svg id="Layer_2" data-name="Layer 2" xmlns="http://www.w3.org/2000/svg" viewBox="0 0 180 180.79">
  <defs>
    <style>
      .cls-1 {
        fill-rule: evenodd;
      }
    </style>
  </defs>
  <g id="Layer_1-2" data-name="Layer 1">
    <path class="cls-1" d="M179.76,133.38l-6.48-2.49c-.12-.05-.2-.14-.23-.26-.86-3.55-2.27-6.94-4.17-10.06-.07-.11-.07-.23-.02-.35l2.82-6.35c.06-.15.03-.31-.08-.42l-7.61-7.61c-.11-.11-.27-.14-.42-.08l-6.35,2.82c-.12.05-.24.04-.35-.02-3.12-1.9-6.51-3.3-10.06-4.17-.12-.03-.22-.11-.26-.23l-2.49-6.48c-.06-.15-.19-.24-.35-.24h-10.76c-.16,0-.29.09-.35.24l-2.49,6.48c-.05.12-.14.2-.26.23-3.55.86-6.94,2.27-10.06,4.17-.11.07-.23.07-.35.02l-6.35-2.82c-.15-.06-.31-.03-.42.08l-7.61,7.61c-.11.11-.14.27-.08.42l2.82,6.35c.05.12.04.24-.02.35-1.9,3.12-3.3,6.51-4.17,10.06-.03.12-.11.22-.23.26l-6.48,2.49c-.15.06-.24.19-.24.35v10.76c0,.16.09.3.24.35l6.48,2.49c.12.05.2.14.23.26.87,3.55,2.27,6.94,4.17,10.06.07.11.07.23.02.35l-2.82,6.35c-.06.15-.03.31.08.42l7.61,7.61c.11.11.27.14.42.08l6.35-2.82c.12-.05.24-.04.35.02,3.12,1.9,6.51,3.3,10.06,4.17.12.03.22.11.26.23l2.49,6.48c.06.15.19.24.35.24h10.76c.16,0,.3-.09.35-.24l2.49-6.48c.05-.12.14-.2.26-.23,3.55-.86,6.94-2.27,10.06-4.17.11-.07.23-.07.35-.02l6.35,2.82c.15.06.31.03.42-.08l7.61-7.61c.11-.11.14-.27.08-.42l-2.82-6.35c-.05-.12-.04-.24.02-.35,1.9-3.12,3.3-6.51,4.17-10.06.03-.12.11-.22.23-.26l6.48-2.49c.15-.06.24-.19.24-.35v-10.76c0-.16-.09-.29-.24-.35h0ZM138.32,158.99c-10.98,0-19.88-8.9-19.88-19.88s8.9-19.88,19.88-19.88,19.88,8.9,19.88,19.88-8.9,19.88-19.88,19.88ZM72.81,43.87c-15.79,0-28.59,12.8-28.59,28.59s12.8,28.59,28.59,28.59,28.59-12.8,28.59-28.59c0-15.79-12.8-28.59-28.59-28.59ZM89.41,67.38l-17.29,17.29c-2.5,2.5-5.84,1.48-8.06-.73l-7.84-7.84c-1.96-1.96-1.96-5.17,0-7.13s5.17-1.96,7.13,0l5.11,5.11,13.82-13.82c1.96-1.96,5.17-1.96,7.13,0,1.96,1.96,1.96,5.17,0,7.13ZM133.7,58.37c-1.53-6.44-4.08-12.59-7.55-18.22l5.26-11.83-13.95-13.95-11.84,5.26c-5.63-3.47-11.78-6.02-18.21-7.55l-4.65-12.08h-19.73l-4.65,12.08c-6.43,1.53-12.58,4.08-18.21,7.55l-11.84-5.26-13.95,13.95,5.26,11.83c-3.47,5.63-6.02,11.78-7.55,18.22L0,63.02v19.73l12.08,4.65c1.53,6.44,4.08,12.59,7.55,18.22l-5.26,11.83,13.95,13.95,11.84-5.26c5.63,3.47,11.78,6.02,18.21,7.55l4.65,12.08h19.73l4.65-12.08c1.11-.26,2.2-.56,3.29-.88.33-2.27,1.85-4.22,4.04-5.06l3.85-1.48c.69-2.13,1.55-4.2,2.57-6.19l-1.67-3.77c-1.07-2.41-.54-5.26,1.32-7.13l7.61-7.61c1.87-1.87,4.72-2.4,7.13-1.32l3.77,1.67c1.99-1.02,4.06-1.88,6.19-2.57l1.48-3.85c.91-2.36,3.12-3.96,5.63-4.09.41-1.33.78-2.67,1.1-4.02l12.08-4.65v-19.73l-12.08-4.65ZM72.89,117.02c-24.37,0-44.13-19.76-44.13-44.13s19.76-44.13,44.13-44.13,44.13,19.76,44.13,44.13-19.76,44.13-44.13,44.13h0Z"/>
  </g>
</svg>