<?xml version="1.0" encoding="UTF-8"?>
<svg id="Layer_2" data-name="Layer 2" xmlns="http://www.w3.org/2000/svg" viewBox="0 0 118.08 147.6">
  <g id="Layer_1-2" data-name="Layer 1">
    <path d="M93.48,14.76h-15.38c-2.19-8.49-9.91-14.76-19.07-14.76s-16.88,6.27-19.07,14.76h-15.38C11.05,14.76,0,25.81,0,39.36v83.64c0,13.55,11.05,24.6,24.6,24.6h68.88c13.55,0,24.6-11.05,24.6-24.6V39.36c0-13.55-11.05-24.6-24.6-24.6ZM21.33,97.83c2.02-1.8,5.14-1.62,6.94.39l4.4,4.94,12.74-15.3c1.75-2.09,4.85-2.36,6.94-.64,2.09,1.75,2.36,4.85.64,6.94l-16.41,19.68c-.91,1.11-2.26,1.75-3.69,1.77h-.1c-1.4,0-2.73-.59-3.67-1.65l-8.19-9.18c-1.82-2.04-1.65-5.14.39-6.96ZM28.27,53.95l4.4,4.94,12.74-15.3c1.75-2.09,4.85-2.36,6.94-.64,2.09,1.75,2.36,4.85.64,6.94l-16.41,19.68c-.91,1.11-2.26,1.75-3.69,1.77h-.1c-1.4,0-2.73-.59-3.67-1.65l-8.19-9.18c-1.82-2.04-1.65-5.14.39-6.96,2.02-1.8,5.14-1.62,6.94.39ZM59.04,103.32c0-2.71,2.21-4.92,4.92-4.92h29.52c2.71,0,4.92,2.21,4.92,4.92s-2.21,4.92-4.92,4.92h-29.52c-2.71,0-4.92-2.21-4.92-4.92ZM93.48,63.96h-29.52c-2.71,0-4.92-2.21-4.92-4.92s2.21-4.92,4.92-4.92h29.52c2.71,0,4.92,2.21,4.92,4.92s-2.21,4.92-4.92,4.92Z"/>
  </g>
</svg>