<?xml version="1.0" encoding="UTF-8"?>
<svg id="Layer_2" data-name="Layer 2" xmlns="http://www.w3.org/2000/svg" viewBox="0 0 405.33 438.01">
  <g id="Layer_1-2" data-name="Layer 1">
    <path d="M36.79,110.18c-3.32,0-6.01-2.69-6.01-6.01s2.69-5.98,6.01-5.98h72.88c3.32,0,6.01,2.66,6.01,5.98s-2.69,6.01-6.01,6.01H36.79ZM250.92,237.4l-35.94,38.41,13.27,49.55,50.34,15.31-27.67-103.27ZM204.09,281.51l-22.54,6.04c-5.58,1.5-8.87,7.26-7.4,12.81l6.49,24.18c.74,2.78,2.55,4.99,4.88,6.32v.03c2.3,1.33,5.13,1.79,7.91,1.02l22.54-6.04-11.88-44.36ZM308.44,313.17c-2.92-1.53-4.05-5.13-2.52-8.08,1.5-2.92,5.13-4.05,8.05-2.52l9.1,4.79c2.92,1.5,4.05,5.13,2.52,8.05s-5.13,4.05-8.05,2.52l-9.1-4.76ZM301.21,254.86c-1.76,2.81-5.47,3.66-8.25,1.87-2.81-1.76-3.63-5.44-1.87-8.25l5.47-8.67c1.79-2.81,5.47-3.63,8.28-1.87,2.78,1.76,3.63,5.44,1.87,8.25l-5.5,8.67ZM313.65,283.29c-3.2.88-6.49-1.02-7.34-4.22s1.05-6.49,4.25-7.34l11.88-3.17c3.2-.85,6.46,1.05,7.34,4.22.85,3.2-1.05,6.49-4.25,7.34l-11.88,3.17ZM210.98,339.62l7.99,29.85c.85,3.2-1.05,6.49-4.22,7.34-3.2.85-6.49-1.05-7.34-4.25l-7.99-29.82-2.86.77c-5.9,1.56-12.13.6-17.04-2.3v.03c-4.96-2.89-8.84-7.65-10.46-13.61l-6.46-24.18c-3.2-11.91,3.97-24.29,15.87-27.47l26.7-7.17,44.39-47.42c3.23-3.46,8.93-1.96,10.12,2.52h.03l33.25,124.04c1.16,4.39-2.86,8.9-7.97,7.14l-61.77-18.77-12.24,3.3ZM370.55,0h-166.14C185.28,0,169.6,15.68,169.6,34.81v97.63c0,18.99,15.53,34.81,34.81,34.81,3.32,0,6.01,2.69,6.01,6.01v37.64l38.89-41.44c1.11-1.36,2.78-2.21,4.65-2.21h116.59c19.11,0,34.78-15.68,34.78-34.81V34.81c0-19.14-15.68-34.81-34.78-34.81h0ZM171.69,165.85c-4.68-4.62-8.39-10.15-10.86-16.36H36.79c-3.32,0-6.01-2.66-6.01-5.98s2.69-6.01,6.01-6.01h121.1c-.2-1.67-.28-3.34-.28-5.07v-66.22H0v255.23h95.9c-5.39-35.15,1.67-70.38,19.13-100.06l-78.24-.17c-3.29,0-5.98-2.66-5.98-5.95s2.69-5.98,5.98-5.98l86.03.17c6.32-8.73,13.52-16.75,21.49-23.92H36.79c-3.32,0-6.01-2.69-6.01-6.01s2.69-6.01,6.01-6.01h122.66c3.94-2.75,8.02-5.3,12.24-7.66h0ZM319.27,179.23h-62.73l-47.76,50.91c-3.71,3.94-10.35,1.28-10.35-4.11h-.03v-47.17c-5.73-.77-11.14-2.55-16.02-5.16-46.32,23.67-76.25,71.35-76.25,124.53,0,77.19,62.59,139.78,139.78,139.78s139.75-62.59,139.75-139.78c-.01-49.01-25.4-93.68-66.39-119h0ZM294.92,99.98l21.4-12.27-42.92-24.63v49.27l21.52-12.37ZM331.26,92.95l-60.86,34.95c-4.03,2.3-8.99-.65-8.99-5.22V52.69c0-4.51,4.93-7.65,9.21-5.05l60.72,34.84c4.08,2.36,3.94,8.23-.08,10.47Z"/>
  </g>
</svg>