<?xml version="1.0" encoding="UTF-8"?>
<svg id="Layer_2" data-name="Layer 2" xmlns="http://www.w3.org/2000/svg" viewBox="0 0 263.09 271.09">
  <defs>
    <style>
      .cls-1 {
        fill-rule: evenodd;
      }
    </style>
  </defs>
  <g id="Layer_1-2" data-name="Layer 1">
    <g>
      <rect x="77.12" y="85.12" width="113.86" height="113.86" rx=".94" ry=".94"/>
      <path class="cls-1" d="M203.98,137.39l-1.9-.23c-.28-.03-.53.05-.73.23s-.32.43-.32.7v65.91c0,2.78-2.25,5.03-5.03,5.03h-65.91c-.28,0-.52.11-.7.32s-.26.46-.23.74l.23,1.9c1.77,14.95,8.53,28.82,19.18,39.46,12.62,12.62,29.59,19.65,47.44,19.65s34.82-7.03,47.44-19.65,19.65-29.59,19.65-47.44-7.03-34.82-19.65-47.44c-10.64-10.65-24.5-17.41-39.46-19.18h0Z"/>
      <path class="cls-1" d="M66.13,126.87c.52,0,.94-.42.94-.94v-45.84c0-2.78,2.25-5.03,5.02-5.03h27.94c.34,0,.62-.16.8-.45s.19-.61.04-.92L64.28.52c-.16-.33-.48-.52-.84-.52s-.68.19-.84.52L.1,125.51c-.15.3-.14.63.04.91.18.29.46.45.8.45h65.18Z"/>
    </g>
  </g>
</svg>