<?xml version="1.0" encoding="UTF-8"?>
<svg id="Layer_2" data-name="Layer 2" xmlns="http://www.w3.org/2000/svg" viewBox="0 0 173.44 173.42">
  <g id="Layer_1-2" data-name="Layer 1">
    <path d="M170.78,81.85l-4.22-2.72-70.47,45.27c-2.83,1.79-6.07,2.77-9.37,2.77s-6.53-.92-9.37-2.72L6.88,79.13l-4.22,2.72C.98,82.89,0,84.74,0,86.7s.98,3.82,2.66,4.86l80.94,52.03c.98.64,2.02.92,3.12.92s2.2-.29,3.12-.92l80.94-52.03c1.68-1.04,2.66-2.89,2.66-4.86s-.98-3.82-2.66-4.86Z"/>
    <path d="M170.78,110.75l-4.22-2.72-70.47,45.27c-2.83,1.79-6.07,2.77-9.37,2.77s-6.53-.92-9.37-2.72L6.88,108.04l-4.22,2.72C.98,111.79,0,113.64,0,115.61s.98,3.82,2.66,4.86l80.94,52.03c.98.64,2.02.92,3.12.92s2.2-.29,3.12-.92l80.94-52.03c1.68-1.04,2.66-2.89,2.66-4.86s-.98-3.82-2.66-4.86Z"/>
    <path d="M2.66,62.65l80.94,52.03c.98.64,2.02.92,3.12.92s2.2-.29,3.12-.92l80.94-52.03c1.68-1.04,2.66-2.89,2.66-4.86s-.98-3.82-2.66-4.86L89.84.91c-1.91-1.21-4.34-1.21-6.24,0L2.66,52.94c-1.68,1.04-2.66,2.89-2.66,4.86s.98,3.82,2.66,4.86ZM105.91,50.05c-2.2-2.31-2.14-5.95.12-8.15,2.31-2.2,5.95-2.14,8.15.12l11.33,11.74c2.2,2.25,2.2,5.78,0,8.04l-11.33,11.74c-1.16,1.16-2.66,1.73-4.16,1.73s-2.89-.52-4.05-1.62c-2.31-2.2-2.37-5.9-.12-8.15l7.46-7.75-7.46-7.75.06.06ZM76.54,75.2l9.08-37.58c.75-3.12,3.87-5.03,7-4.28s5.03,3.87,4.28,7l-9.08,37.58c-.64,2.66-3.01,4.39-5.61,4.39-.46,0-.92,0-1.39-.17-3.12-.75-5.03-3.87-4.28-7v.06ZM47.87,53.75l11.33-11.74c2.2-2.31,5.9-2.37,8.15-.12,2.31,2.2,2.37,5.9.12,8.15l-7.46,7.75,7.46,7.75c2.2,2.31,2.14,5.95-.12,8.15-1.1,1.1-2.6,1.62-4.05,1.62s-3.01-.58-4.16-1.73l-11.33-11.74c-2.2-2.25-2.2-5.78,0-8.04l.06-.06Z"/>
  </g>
</svg>