<?xml version="1.0" encoding="UTF-8"?>
<svg id="Layer_2" data-name="Layer 2" xmlns="http://www.w3.org/2000/svg" viewBox="0 0 571.71 571.34">
  <defs>
    <style>
      .cls-1 {
        fill: #003dfa;
      }
    </style>
  </defs>
  <g id="Layer_1-2" data-name="Layer 1">
    <path class="cls-1" d="M555.72,311.63l1.01-.26c8.91-2.8,14.5-9.1,14.95-16.85.48-8.43-5.18-16.29-14.73-20.54-7.87-3.5-18.53-5.7-28.86-7.79-7.01-1.45-14.28-2.95-19.76-4.7-87.35-27.96-144.43-62.64-177.69-156.92-1.34-3.8-4.4-14.99-7.64-26.84C303.95,7.93,301.12,2.48,292.02.43c-10.59-2.46-17.04,6.23-19.46,9.47l-.34.45c-6.49,8.54-11.48,27.74-18.42,56.04-2.5,10.36-4.92,20.17-6.79,25.8-27.59,83.22-74.49,131.35-156.89,160.95-8.13,2.91-20.47,5.74-32.44,8.5-18.53,4.21-36.01,8.24-46.42,13.98C.55,281.55-.16,289.9.02,293.21c.37,7.2,5.44,13.35,13.79,16.78,10.07,4.25,24.76,7.31,39,10.25,9.95,2.05,20.21,4.18,27.92,6.52,74.49,22.74,123.82,58.46,150.73,109.31,13.72,25.8,21.18,55.4,28.37,84,3.13,12.49,6.38,25.39,10.14,37.95,2.12,7.2,8.35,12.38,15.66,13.2.75.07,1.49.11,2.24.11,8.24,0,15.77-5.56,18.05-13.68,2.39-8.54,4.62-17.11,6.86-25.65,12.75-48.58,24.76-94.4,57.42-132.17,47.46-54.99,120.65-74.34,185.52-88.21Z"/>
  </g>
</svg>